<?xml version="1.0" encoding="UTF-8" standalone="no"?>
<!DOCTYPE svg PUBLIC "-//W3C//DTD SVG 1.1//EN"
 "http://www.w3.org/Graphics/SVG/1.1/DTD/svg11.dtd">
<!-- Generated by graphviz version 6.0.2 (20221011.1828)
 -->
<!-- Pages: 1 -->
<svg width="280pt" height="497pt"
 viewBox="0.00 0.00 280.00 497.00" xmlns="http://www.w3.org/2000/svg" xmlns:xlink="http://www.w3.org/1999/xlink">
<g id="graph0" class="graph" transform="scale(1 1) rotate(0) translate(4 493)">
<polygon fill="white" stroke="none" points="-4,4 -4,-493 276,-493 276,4 -4,4"/>
<!-- Corpus -->
<g id="node1" class="node">
<title>Corpus</title>
<polygon fill="#f2f2f2" stroke="black" points="86.5,-382.5 86.5,-488.5 185.5,-488.5 185.5,-382.5 86.5,-382.5"/>
<text text-anchor="start" x="111" y="-474.3" font-family="IBM Plex Mono" font-weight="bold" font-size="14.00">Corpus</text>
<polyline fill="none" stroke="black" points="86.5,-465.5 185.5,-465.5"/>
<text text-anchor="start" x="94.5" y="-450.3" font-family="IBM Plex Mono" font-size="14.00">document_1</text>
<text text-anchor="start" x="94.5" y="-435.3" font-family="IBM Plex Mono" font-size="14.00">document_2</text>
<text text-anchor="start" x="94.5" y="-420.3" font-family="IBM Plex Mono" font-size="14.00">document_3</text>
<text text-anchor="start" x="123.5" y="-405.3" font-family="IBM Plex Mono" font-size="14.00">...</text>
<text text-anchor="start" x="94.5" y="-390.3" font-family="IBM Plex Mono" font-size="14.00">document_n</text>
</g>
<!-- Model -->
<g id="node2" class="node">
<title>Model</title>
<polygon fill="#f2f2f2" stroke="black" points="0,-201.5 0,-345.5 272,-345.5 272,-201.5 0,-201.5"/>
<text text-anchor="start" x="115" y="-331.3" font-family="IBM Plex Mono" font-weight="bold" font-size="14.00">Model</text>
<polyline fill="none" stroke="black" points="0,-322.5 272,-322.5"/>
<text text-anchor="start" x="8" y="-307.3" font-family="IBM Plex Mono" font-size="14.00">+ What is singnal? </text>
<text text-anchor="start" x="8" y="-292.3" font-family="IBM Plex Mono" font-size="14.00">+ What is noise? </text>
<text text-anchor="start" x="8" y="-277.3" font-family="IBM Plex Mono" font-size="14.00"> + What are units of analysis? </text>
<polyline fill="none" stroke="black" points="0,-269.5 272,-269.5"/>
<text text-anchor="start" x="86" y="-254.3" font-family="IBM Plex Mono" font-size="14.00">+ Validate </text>
<text text-anchor="start" x="86" y="-239.3" font-family="IBM Plex Mono" font-size="14.00">+ Explore &#160;</text>
<text text-anchor="start" x="86" y="-224.3" font-family="IBM Plex Mono" font-size="14.00">+ Summarize </text>
<text text-anchor="start" x="86" y="-209.3" font-family="IBM Plex Mono" font-size="14.00"> + Describe</text>
</g>
<!-- Corpus&#45;&gt;Model -->
<g id="edge1" class="edge">
<title>Corpus&#45;&gt;Model</title>
<path fill="none" stroke="black" d="M136,-382.11C136,-373.63 136,-364.69 136,-355.72"/>
<polygon fill="black" stroke="black" points="139.5,-355.61 136,-345.61 132.5,-355.61 139.5,-355.61"/>
</g>
<!-- Tasks -->
<g id="node3" class="node">
<title>Tasks</title>
<polygon fill="#f2f2f2" stroke="black" points="45,-73.5 45,-164.5 227,-164.5 227,-73.5 45,-73.5"/>
<text text-anchor="start" x="115" y="-150.3" font-family="IBM Plex Mono" font-weight="bold" font-size="14.00">Tasks</text>
<polyline fill="none" stroke="black" points="45,-141.5 227,-141.5"/>
<text text-anchor="start" x="53" y="-126.3" font-family="IBM Plex Mono" font-size="14.00">+ Measure </text>
<text text-anchor="start" x="53" y="-111.3" font-family="IBM Plex Mono" font-size="14.00">+ Validate </text>
<text text-anchor="start" x="53" y="-96.3" font-family="IBM Plex Mono" font-size="14.00">+ Test relationships</text>
<text text-anchor="start" x="53" y="-81.3" font-family="IBM Plex Mono" font-size="14.00">...</text>
</g>
<!-- Model&#45;&gt;Tasks -->
<g id="edge2" class="edge">
<title>Model&#45;&gt;Tasks</title>
<path fill="none" stroke="black" d="M136,-201.16C136,-192.34 136,-183.44 136,-174.92"/>
<polygon fill="black" stroke="black" points="139.5,-174.75 136,-164.75 132.5,-174.75 139.5,-174.75"/>
</g>
<!-- Evidence -->
<g id="node4" class="node">
<title>Evidence</title>
<polygon fill="#f2f2f2" stroke="black" points="94.5,-0.5 94.5,-36.5 177.5,-36.5 177.5,-0.5 94.5,-0.5"/>
<text text-anchor="middle" x="136" y="-14.8" font-family="IBM Plex Mono" font-size="14.00">Evidence</text>
</g>
<!-- Tasks&#45;&gt;Evidence -->
<g id="edge3" class="edge">
<title>Tasks&#45;&gt;Evidence</title>
<path fill="none" stroke="black" d="M136,-73.36C136,-64.3 136,-55.03 136,-46.79"/>
<polygon fill="black" stroke="black" points="139.5,-46.66 136,-36.66 132.5,-46.66 139.5,-46.66"/>
</g>
</g>
</svg>
